<svg t="1714620146616" class="icon" viewBox="0 0 1024 1024" version="1.1" xmlns="http://www.w3.org/2000/svg" p-id="7665" width="128" height="128"><path d="M149.333333 204.8a29.866667 29.866667 0 0 0-29.866666 29.866667v554.666666a29.866667 29.866667 0 0 0 29.866666 29.866667h725.333334a29.866667 29.866667 0 0 0 29.866666-29.866667v-554.666666a29.866667 29.866667 0 0 0-29.866666-29.866667h-725.333334z m-98.133333 29.866667a98.133333 98.133333 0 0 1 98.133333-98.133334h725.333334a98.133333 98.133333 0 0 1 98.133333 98.133334v554.666666a98.133333 98.133333 0 0 1-98.133333 98.133334h-725.333334a98.133333 98.133333 0 0 1-98.133333-98.133334v-554.666666z" fill="#ffffff" p-id="7666"></path><path d="M149.333333 204.8a29.866667 29.866667 0 0 0-29.866666 29.866667v157.866666h785.066666V234.666667a29.866667 29.866667 0 0 0-29.866666-29.866667h-725.333334z m-98.133333 29.866667a98.133333 98.133333 0 0 1 98.133333-98.133334h725.333334a98.133333 98.133333 0 0 1 98.133333 98.133334v226.133333H51.2V234.666667z" fill="#ffffff" p-id="7667"></path><path d="M170.666667 298.666667a42.666667 42.666667 0 1 1 85.333333 0 42.666667 42.666667 0 0 1-85.333333 0zM298.666667 298.666667a42.666667 42.666667 0 1 1 85.333333 0 42.666667 42.666667 0 0 1-85.333333 0z" fill="#ffffff" p-id="7668"></path></svg>